<svg width="250" height="250" viewBox="0 0 250 250" fill="none" xmlns="http://www.w3.org/2000/svg">
<g clip-path="url(#clip0_533_1392)">
<g clip-path="url(#clip1_533_1392)">
<path d="M238.723 7.32096C233.27 2.75816 226.264 0 218.636 0H31.3643C14.1139 0 0 14.1139 0 31.3643V218.636C0 226.91 3.24675 234.46 8.52667 240.079C14.2558 246.178 22.3884 250 31.3643 250H218.636C235.886 250 250 235.886 250 218.636V31.3643C250 21.7343 245.603 13.0895 238.723 7.32096Z" fill="#1F7DC0"/>
<path d="M199.51 188.461H165.498V119.838L135.111 166.727V166.924H116.198V166.727L85.6055 119.436L85.8104 188.461H51.8062V51.6171H76.9607L125.662 124.669L174.158 51.6171H199.51V188.461Z" fill="#736868"/>
<path d="M197.548 188.461H163.535V119.838L133.148 166.727V166.924H114.235V166.727L83.6433 119.436L83.8482 188.461H49.8361V51.6171H74.9905L123.692 124.669L172.188 51.6171H197.54V188.461H197.548Z" fill="white"/>
</g>
</g>
<defs>
<clipPath id="clip0_533_1392">
<rect width="250" height="250" fill="white"/>
</clipPath>
<clipPath id="clip1_533_1392">
<rect width="250" height="250" fill="white"/>
</clipPath>
</defs>
</svg>
